<svg width="24" height="24" viewBox="0 0 24 24" fill="none" xmlns="http://www.w3.org/2000/svg">
<circle cx="12" cy="12" r="12" fill="white"/>
<path d="M19.0641 6H4.60256C4.44275 6 4.28949 6.06321 4.17649 6.17574C4.06348 6.28826 4 6.44087 4 6.6V16.8C4 17.1183 4.12697 17.4235 4.35297 17.6485C4.57898 17.8736 4.88551 18 5.20513 18H18.4615C18.7812 18 19.0877 17.8736 19.3137 17.6485C19.5397 17.4235 19.6667 17.1183 19.6667 16.8V6.6C19.6667 6.44087 19.6032 6.28826 19.4902 6.17574C19.3772 6.06321 19.2239 6 19.0641 6ZM18.4615 16.8H5.20513V7.965L11.4266 13.6425C11.5377 13.7437 11.6828 13.7998 11.8333 13.7998C11.9839 13.7998 12.129 13.7437 12.2401 13.6425L18.4615 7.965V16.8Z" fill="black"/>
</svg>
