<svg width="24" height="24" viewBox="0 0 24 24" fill="none" xmlns="http://www.w3.org/2000/svg">
<g clip-path="url(#clip0_139_104)">
<circle cx="12" cy="12" r="12" fill="white"/>
<path fill-rule="evenodd" clip-rule="evenodd" d="M15.2335 4H8.76649C6.13823 4 4 6.13823 4 8.76649V15.2335C4 17.8618 6.13823 20 8.76649 20H15.2335C17.8618 20 20 17.8618 20 15.2335V8.76649C20 6.13823 17.8617 4 15.2335 4ZM18.3904 15.2335C18.3904 16.977 16.977 18.3904 15.2335 18.3904H8.76649C7.023 18.3904 5.6096 16.977 5.6096 15.2335V8.76649C5.6096 7.02297 7.023 5.6096 8.76649 5.6096H15.2335C16.977 5.6096 18.3904 7.02297 18.3904 8.76649V15.2335ZM12 7.86182C9.7182 7.86182 7.86182 9.71819 7.86182 12C7.86182 14.2817 9.7182 16.1381 12 16.1381C14.2818 16.1381 16.1382 14.2817 16.1382 12C16.1382 9.71817 14.2818 7.86182 12 7.86182ZM12 14.5286C10.6035 14.5286 9.47142 13.3965 9.47142 12C9.47142 10.6035 10.6035 9.47142 12 9.47142C13.3965 9.47142 14.5286 10.6035 14.5286 12C14.5286 13.3965 13.3965 14.5286 12 14.5286ZM17.1378 7.89292C17.1378 8.44056 16.6938 8.88451 16.1462 8.88451C15.5986 8.88451 15.1546 8.44056 15.1546 7.89292C15.1546 7.34528 15.5986 6.90133 16.1462 6.90133C16.6938 6.90133 17.1378 7.34528 17.1378 7.89292Z" fill="black"/>
</g>
<defs>
<clipPath id="clip0_139_104">
<rect width="24" height="24" fill="white"/>
</clipPath>
</defs>
</svg>
