<svg width="24" height="24" viewBox="0 0 24 24" fill="none" xmlns="http://www.w3.org/2000/svg">
<rect width="24" height="24" rx="12" fill="white"/>
<path fill-rule="evenodd" clip-rule="evenodd" d="M10.5399 10.3001V9.67605C10.3233 9.64538 10.1049 9.62945 9.8861 9.62842C7.21102 9.62842 5.03467 11.8051 5.03467 14.4802C5.03467 16.1212 5.85478 17.5738 7.10585 18.4522C6.26816 17.5563 5.80244 16.3755 5.80312 15.149C5.80312 12.512 7.91753 10.3617 10.5399 10.3001Z" fill="#00F2EA"/>
<path fill-rule="evenodd" clip-rule="evenodd" d="M10.6541 17.3645C11.8477 17.3645 12.8213 16.415 12.8657 15.2317L12.8697 4.66877H14.7994C14.7582 4.44823 14.7374 4.22436 14.7371 4H12.1016L12.0972 14.5633C12.0533 15.7462 11.0792 16.6953 9.88605 16.6953C9.52782 16.6955 9.17499 16.6082 8.85815 16.441C9.06272 16.7264 9.33232 16.9591 9.64462 17.1196C9.95692 17.2802 10.303 17.3641 10.6541 17.3645ZM18.4043 8.25414V7.66707C17.6951 7.66774 17.0011 7.46144 16.4075 7.07343C16.9279 7.6727 17.6287 8.08697 18.4046 8.25414" fill="#00F2EA"/>
<path fill-rule="evenodd" clip-rule="evenodd" d="M16.4073 7.07311C15.8255 6.40744 15.5051 5.55326 15.5054 4.66919H14.7993C14.8907 5.15784 15.0804 5.62284 15.3568 6.03604C15.6332 6.44925 15.9905 6.80206 16.4073 7.07311ZM9.88597 12.2642C9.29858 12.2649 8.73544 12.4986 8.32008 12.9139C7.90474 13.3293 7.67111 13.8924 7.67041 14.4798C7.67081 14.8839 7.78161 15.2802 7.99088 15.6258C8.20014 15.9715 8.49988 16.2534 8.85771 16.4411C8.58524 16.0653 8.43854 15.6131 8.43851 15.149C8.43908 14.5615 8.67268 13.9983 9.08804 13.5828C9.50341 13.1674 10.0666 12.9337 10.6541 12.933C10.8824 12.933 11.1011 12.9708 11.3078 13.0356V10.3448C11.0912 10.3141 10.8728 10.2982 10.6541 10.2971C10.6156 10.2971 10.5778 10.2993 10.5397 10.3001V12.3669C10.3283 12.2996 10.1078 12.265 9.88597 12.2642Z" fill="#FF004F"/>
<path fill-rule="evenodd" clip-rule="evenodd" d="M18.4044 8.25403V10.3025C17.0375 10.3025 15.7714 9.86533 14.7373 9.12326V14.4797C14.7373 17.1548 12.5613 19.3311 9.88623 19.3311C8.85247 19.3311 7.89383 19.005 7.10596 18.4517C7.55893 18.9401 8.1079 19.3298 8.7185 19.5962C9.3291 19.8626 9.98813 20.0001 10.6543 19.9999C13.3294 19.9999 15.5058 17.8236 15.5058 15.1488V9.79239C16.5741 10.5606 17.857 10.9732 19.1728 10.9716V8.3354C18.909 8.3354 18.6525 8.3068 18.4044 8.25366" fill="#FF004F"/>
<path fill-rule="evenodd" clip-rule="evenodd" d="M14.7373 14.4798V9.12341C15.8056 9.89168 17.0885 10.3042 18.4044 10.3026V8.25418C17.6286 8.08685 16.9279 7.67245 16.4076 7.07311C15.9909 6.80206 15.6335 6.44925 15.3571 6.03604C15.0807 5.62284 14.891 5.15784 14.7996 4.66919H12.8699L12.8658 15.2321C12.8215 16.415 11.8478 17.3645 10.6543 17.3645C10.3031 17.3642 9.9571 17.2802 9.6448 17.1196C9.33253 16.9591 9.06293 16.7265 8.85833 16.4411C8.50043 16.2534 8.2006 15.9716 7.99127 15.6259C7.78193 15.2802 7.67107 14.8839 7.67067 14.4798C7.67133 13.8924 7.90497 13.3293 8.32033 12.9139C8.73567 12.4986 9.29883 12.2649 9.88623 12.2642C10.1142 12.2642 10.3329 12.3016 10.54 12.3669V10.3001C7.91763 10.3616 5.80322 12.512 5.80322 15.149C5.80322 16.4242 6.29867 17.5851 7.10596 18.4521C7.9198 19.0251 8.89097 19.3321 9.88623 19.3313C12.5613 19.3313 14.7373 17.1549 14.7373 14.4798Z" fill="black"/>
</svg>
